<?xml version="1.0" standalone="no"?>
<!DOCTYPE svg PUBLIC "-//W3C//DTD SVG 20010904//EN"
 "http://www.w3.org/TR/2001/REC-SVG-20010904/DTD/svg10.dtd">
<svg version="1.0" xmlns="http://www.w3.org/2000/svg"
 width="50.000000pt" height="50.000000pt" viewBox="0 0 50.000000 50.000000"
 preserveAspectRatio="xMidYMid meet">

<g transform="translate(0.000000,50.000000) scale(0.100000,-0.100000)"
fill="#000000" stroke="none">
<path d="M151 419 c-6 -29 -10 -54 -8 -56 2 -2 25 21 51 52 l48 55 -40 0 -40
0 -11 -51z"/>
<path d="M306 415 c26 -30 49 -53 51 -51 2 2 -2 26 -8 55 l-11 51 -39 0 -40 0
47 -55z"/>
<path d="M99 422 c-19 -20 -46 -50 -59 -65 l-25 -28 50 3 49 3 12 60 c7 33 11
61 10 62 -1 2 -18 -14 -37 -35z"/>
<path d="M365 438 c3 -12 9 -41 13 -63 8 -40 8 -40 56 -43 l49 -3 -53 60 c-62
73 -73 80 -65 49z"/>
<path d="M195 388 l-48 -53 52 -3 c28 -2 74 -2 101 0 l50 3 -46 53 c-25 28
-49 52 -54 52 -4 0 -29 -24 -55 -52z"/>
<path d="M20 304 c0 -3 41 -58 92 -122 50 -64 89 -110 86 -102 -2 8 -22 63
-44 122 l-39 108 -47 0 c-27 0 -48 -3 -48 -6z"/>
<path d="M142 297 c8 -32 104 -277 108 -277 4 0 100 245 108 277 3 10 -22 13
-108 13 -86 0 -111 -3 -108 -13z"/>
<path d="M346 202 c-22 -59 -42 -114 -44 -122 -3 -8 36 38 86 102 51 64 92
119 92 122 0 3 -21 6 -47 6 l-48 0 -39 -108z"/>
</g>
</svg>
